<svg xmlns="http://www.w3.org/2000/svg" xmlns:xlink="http://www.w3.org/1999/xlink" width="500" zoomAndPan="magnify" viewBox="0 0 375 74.999997" height="100" preserveAspectRatio="xMidYMid meet" version="1.0"><defs><g/><clipPath id="cadf44bc87"><path d="M 216.101562 21.382812 L 233.351562 21.382812 L 233.351562 38.632812 L 216.101562 38.632812 Z M 216.101562 21.382812 " clip-rule="nonzero"/></clipPath></defs><g clip-path="url(#cadf44bc87)"><path fill="#ffffff" d="M 233.359375 30.007812 C 227.304688 31.433594 226.152344 32.585938 224.730469 38.636719 C 223.308594 32.585938 222.152344 31.433594 216.101562 30.007812 C 222.152344 28.585938 223.308594 27.433594 224.730469 21.382812 C 226.152344 27.433594 227.304688 28.585938 233.359375 30.007812 Z M 233.359375 30.007812 " fill-opacity="1" fill-rule="nonzero"/></g><g fill="#ffffff" fill-opacity="1"><g transform="translate(2.887976, 43.006818)"><g><path d="M 11.507812 0 L 14.75 0 L 14.75 -29.460938 C 19.21875 -29.417969 21.914062 -29.164062 24.78125 -26.511719 L 24.78125 -29.796875 L 1.476562 -29.796875 L 1.476562 -26.511719 C 4.257812 -29.164062 6.996094 -29.417969 11.507812 -29.460938 Z M 11.507812 0 "/></g></g></g><g fill="#ffffff" fill-opacity="1"><g transform="translate(29.142126, 43.006818)"><g><path d="M 21.957031 0 L 25.5 0 L 12.898438 -29.753906 L 12.601562 -29.753906 C 9.398438 -24.316406 5.605469 -16.648438 3.371094 -10.621094 C 2.359375 -7.921875 1.769531 -5.5625 1.558594 -3.707031 C 1.347656 -1.8125 1.8125 -0.546875 2.949219 -0.0429688 C 3.246094 0.210938 3.371094 0.210938 3.625 0.253906 C 5.519531 0.335938 6.238281 -1.222656 7.039062 -3.328125 C 8.386719 -6.40625 10.03125 -10.746094 17.195312 -11.421875 Z M 17.070312 -11.714844 C 9.777344 -11 8.09375 -6.574219 6.703125 -3.414062 C 6.027344 -1.476562 5.351562 0 3.667969 -0.125 C 3.457031 -0.253906 3.328125 -0.253906 3.078125 -0.335938 C 2.066406 -0.675781 1.769531 -1.980469 1.855469 -3.707031 C 2.066406 -5.519531 2.65625 -7.839844 3.667969 -10.535156 C 5.4375 -15.425781 8.304688 -21.15625 10.875 -26.128906 Z M 17.070312 -11.714844 "/></g></g></g><g fill="#ffffff" fill-opacity="1"><g transform="translate(56.112677, 43.006818)"><g><path d="M 13.402344 -16.4375 C 17.070312 -16.902344 20.1875 -19.007812 20.1875 -23.136719 C 20.1875 -27.941406 15.089844 -29.796875 8.894531 -29.796875 L 1.476562 -29.796875 L 1.476562 0 L 4.804688 0 L 4.804688 -23.644531 C 5.183594 -21.875 5.691406 -20.523438 6.449219 -19.304688 C 7.710938 -17.320312 9.523438 -16.269531 11.589844 -16.269531 C 21.113281 -16.269531 11.589844 0 26.929688 0 L 26.929688 -0.335938 C 24.109375 -0.335938 22.546875 -3.539062 20.945312 -7.207031 C 19.261719 -11.167969 17.785156 -15.425781 13.402344 -16.4375 Z M 16.859375 -23.136719 C 16.859375 -18.710938 14.582031 -16.730469 11.886719 -16.5625 L 11.589844 -16.5625 C 9.652344 -16.5625 7.921875 -17.785156 6.742188 -19.511719 C 5.5625 -21.367188 4.804688 -23.769531 4.804688 -26.847656 L 4.804688 -29.460938 L 8.894531 -29.460938 C 12.980469 -29.460938 16.859375 -27.941406 16.859375 -23.136719 Z M 16.859375 -23.136719 "/></g></g></g><g fill="#ffffff" fill-opacity="1"><g transform="translate(84.516043, 43.006818)"><g><path d="M 21.957031 0 L 25.5 0 L 12.898438 -29.753906 L 12.601562 -29.753906 C 9.398438 -24.316406 5.605469 -16.648438 3.371094 -10.621094 C 2.359375 -7.921875 1.769531 -5.5625 1.558594 -3.707031 C 1.347656 -1.8125 1.8125 -0.546875 2.949219 -0.0429688 C 3.246094 0.210938 3.371094 0.210938 3.625 0.253906 C 5.519531 0.335938 6.238281 -1.222656 7.039062 -3.328125 C 8.386719 -6.40625 10.03125 -10.746094 17.195312 -11.421875 Z M 17.070312 -11.714844 C 9.777344 -11 8.09375 -6.574219 6.703125 -3.414062 C 6.027344 -1.476562 5.351562 0 3.667969 -0.125 C 3.457031 -0.253906 3.328125 -0.253906 3.078125 -0.335938 C 2.066406 -0.675781 1.769531 -1.980469 1.855469 -3.707031 C 2.066406 -5.519531 2.65625 -7.839844 3.667969 -10.535156 C 5.4375 -15.425781 8.304688 -21.15625 10.875 -26.128906 Z M 17.070312 -11.714844 "/></g></g></g><g fill="#ffffff" fill-opacity="1"><g transform="translate(111.486593, 43.006818)"><g><path d="M 1.476562 -29.753906 L 1.476562 0 L 4.636719 0 L 4.636719 -29.460938 C 9.1875 -29.460938 12.558594 -26.046875 15.089844 -21.242188 C 18.207031 -15.128906 19.765625 -6.703125 19.765625 0 L 22.925781 0 L 22.925781 -29.753906 L 19.765625 -29.753906 L 19.765625 -5.5625 C 19.132812 -11 17.742188 -16.816406 15.257812 -21.410156 C 12.8125 -26.300781 9.230469 -29.753906 4.636719 -29.753906 Z M 1.476562 -29.753906 "/></g></g></g><g fill="#ffffff" fill-opacity="1"><g transform="translate(135.88652, 43.006818)"><g><path d="M 11.085938 -29.753906 L 1.476562 -29.753906 L 1.476562 -26.382812 C 2.316406 -28.660156 4.761719 -29.25 7.882812 -29.332031 L 7.882812 -8.683594 C 7.882812 -2.824219 7.292969 0 5.519531 0 C 4.761719 0 1.855469 0.296875 1.855469 -6.363281 L 1.855469 -9.230469 L 1.476562 -9.230469 L 1.476562 -6.363281 C 1.476562 -3.328125 1.855469 0.335938 5.4375 0.335938 C 9.734375 0.335938 11.085938 -2.359375 11.085938 -8.683594 Z M 11.085938 -29.753906 "/></g></g></g><g fill="#ffffff" fill-opacity="1"><g transform="translate(148.444678, 43.006818)"><g><path d="M 4.71875 -19.851562 C 5.941406 -14.878906 11 -15.128906 13.445312 -12.347656 L 13.445312 -15.679688 C 7.671875 -15.679688 4.71875 -16.859375 4.71875 -22.632812 L 4.71875 -29.460938 L 8.175781 -29.460938 C 13.316406 -29.460938 15.511719 -29.25 18.503906 -26.382812 L 18.503906 -29.753906 L 1.476562 -29.753906 L 1.476562 0 L 18.25 0 L 19.21875 -6.238281 C 17.703125 -1.980469 15.511719 -0.335938 11.84375 -0.335938 L 4.71875 -0.335938 Z M 4.71875 -19.851562 "/></g></g></g><g fill="#ffffff" fill-opacity="1"><g transform="translate(169.136144, 43.006818)"><g><path d="M 4.71875 -19.851562 C 5.941406 -14.878906 11 -15.128906 13.445312 -12.347656 L 13.445312 -15.679688 C 7.671875 -15.679688 4.71875 -16.859375 4.71875 -22.632812 L 4.71875 -29.460938 L 8.175781 -29.460938 C 13.316406 -29.460938 15.511719 -29.25 18.503906 -26.382812 L 18.503906 -29.753906 L 1.476562 -29.753906 L 1.476562 0 L 18.25 0 L 19.21875 -6.238281 C 17.703125 -1.980469 15.511719 -0.335938 11.84375 -0.335938 L 4.71875 -0.335938 Z M 4.71875 -19.851562 "/></g></g></g><g fill="#ffffff" fill-opacity="1"><g transform="translate(189.82761, 43.006818)"><g><path d="M 11.507812 0 L 14.75 0 L 14.75 -29.460938 C 19.21875 -29.417969 21.914062 -29.164062 24.78125 -26.511719 L 24.78125 -29.796875 L 1.476562 -29.796875 L 1.476562 -26.511719 C 4.257812 -29.164062 6.996094 -29.417969 11.507812 -29.460938 Z M 11.507812 0 "/></g></g></g><g fill="#ffffff" fill-opacity="1"><g transform="translate(238.469724, 42.898733)"><g><path d="M 3.71875 -23.171875 C 3.71875 -18.242188 8.257812 -15.78125 12.882812 -13.703125 C 22.957031 -9.078125 23.734375 -4.625 20.882812 -2.25 C 15.433594 2.335938 5.75 -1.425781 1.511719 -12.148438 L 1.511719 -6.140625 C 6.398438 0.128906 16.296875 1.859375 21.226562 -1.902344 C 22.785156 -3.15625 23.734375 -4.972656 23.734375 -7.304688 C 23.734375 -12.40625 19.238281 -14.871094 14.527344 -16.902344 C 3.976562 -21.832031 3.632812 -26.589844 7.003906 -28.792969 C 10.980469 -31.558594 18.847656 -30.910156 23.214844 -22.046875 L 23.214844 -26.589844 C 19.496094 -32.597656 3.71875 -32.8125 3.71875 -23.171875 Z M 3.71875 -23.171875 "/></g></g></g><g fill="#ffffff" fill-opacity="1"><g transform="translate(263.716502, 42.898733)"><g><path d="M 1.511719 0 L 4.753906 0 L 4.753906 -30.523438 L 1.511719 -30.523438 Z M 1.511719 0 "/></g></g></g><g fill="#ffffff" fill-opacity="1"><g transform="translate(269.984961, 42.898733)"><g><path d="M 1.511719 -30.523438 L 1.511719 0 L 4.753906 0 L 4.753906 -30.21875 C 9.425781 -30.21875 12.882812 -26.71875 15.476562 -21.789062 C 18.675781 -15.519531 20.277344 -6.875 20.277344 0 L 23.519531 0 L 23.519531 -30.523438 L 20.277344 -30.523438 L 20.277344 -5.707031 C 19.628906 -11.285156 18.199219 -17.25 15.648438 -21.960938 C 13.144531 -26.976562 9.46875 -30.523438 4.753906 -30.523438 Z M 1.511719 -30.523438 "/></g></g></g><g fill="#ffffff" fill-opacity="1"><g transform="translate(295.015592, 42.898733)"><g><path d="M 25.335938 -3.242188 C 24.125 -2.074219 22.652344 -0.996094 20.707031 -0.5625 C 13.488281 1.425781 7.175781 -5.402344 5.449219 -12.019531 C 3.761719 -18.589844 5.707031 -27.667969 13.054688 -29.699219 C 22.222656 -32.25 26.847656 -22.480469 27.0625 -21.960938 L 27.0625 -26.457031 C 27.0625 -26.457031 22.523438 -32.640625 13.011719 -30.003906 C 4.753906 -27.839844 -0.128906 -19.367188 2.074219 -11.152344 C 4.324219 -2.941406 12.753906 2.03125 20.792969 -0.347656 C 24.039062 -1.167969 26.761719 -2.941406 28.621094 -5.316406 L 28.621094 -14.351562 L 12.105469 -14.351562 L 12.105469 -11.023438 C 15.175781 -13.835938 20.058594 -14.007812 25.335938 -14.007812 Z M 25.335938 -3.242188 "/></g></g></g><g fill="#ffffff" fill-opacity="1"><g transform="translate(325.147456, 42.898733)"><g><path d="M 4.796875 -17.941406 C 7.089844 -11.976562 18.761719 -19.886719 18.761719 -11.152344 L 18.761719 0 L 22.136719 0 L 22.136719 -30.523438 L 18.761719 -30.523438 L 18.761719 -13.488281 C 16.558594 -19.496094 4.796875 -11.457031 4.796875 -20.320312 L 4.796875 -30.523438 L 1.511719 -30.523438 L 1.511719 0 L 4.796875 0 Z M 4.796875 -17.941406 "/></g></g></g><g fill="#ffffff" fill-opacity="1"><g transform="translate(84.480261, 60.462998)"><g><path d="M 3.304688 0 L 5.097656 0 L 7.746094 -6.25 L 7.753906 -6.25 L 10.394531 0 L 12.183594 0 L 15.492188 -7.511719 L 13.964844 -7.511719 L 11.273438 -1.25 L 11.253906 -1.25 L 8.675781 -7.511719 L 6.8125 -7.511719 L 4.25 -1.25 L 4.238281 -1.25 L 1.527344 -7.511719 L -0.0117188 -7.511719 Z M 3.304688 0 "/></g></g></g><g fill="#ffffff" fill-opacity="1"><g transform="translate(107.909659, 60.462998)"><g><path d="M 0.53125 0 L 8.105469 0 L 8.105469 -1.070312 L 1.960938 -1.070312 L 1.960938 -3.371094 L 7.574219 -3.371094 L 7.574219 -4.355469 L 1.960938 -4.355469 L 1.960938 -6.429688 L 8 -6.429688 L 8 -7.511719 L 0.53125 -7.511719 Z M 0.53125 0 "/></g></g></g><g fill="#ffffff" fill-opacity="1"><g transform="translate(124.170172, 60.462998)"><g><path d="M 0.53125 0 L 6.292969 0 C 7.957031 0 9.039062 -0.828125 9.039062 -2.085938 C 9.039062 -2.945312 8.476562 -3.644531 7.617188 -3.847656 L 7.617188 -3.855469 C 8.347656 -4.078125 8.824219 -4.703125 8.824219 -5.46875 C 8.824219 -6.707031 7.808594 -7.511719 6.25 -7.511719 L 0.53125 -7.511719 Z M 2.003906 -4.324219 L 2.003906 -6.515625 L 5.890625 -6.515625 C 6.78125 -6.515625 7.351562 -6.09375 7.351562 -5.414062 C 7.351562 -4.746094 6.78125 -4.324219 5.902344 -4.324219 Z M 2.003906 -0.996094 L 2.003906 -3.402344 L 5.914062 -3.402344 C 6.90625 -3.402344 7.566406 -2.914062 7.566406 -2.203125 C 7.566406 -1.472656 6.90625 -0.996094 5.914062 -0.996094 Z M 2.003906 -0.996094 "/></g></g></g><g fill="#ffffff" fill-opacity="1"><g transform="translate(141.373129, 60.462998)"><g/></g></g><g fill="#ffffff" fill-opacity="1"><g transform="translate(152.381399, 60.462998)"><g><path d="M 0.53125 0 L 5.246094 0 C 8.085938 0 9.664062 -1.34375 9.664062 -3.75 C 9.664062 -6.167969 8.085938 -7.511719 5.246094 -7.511719 L 0.53125 -7.511719 Z M 1.980469 -1.113281 L 1.980469 -6.378906 L 5.117188 -6.378906 C 7.109375 -6.378906 8.222656 -5.445312 8.222656 -3.75 C 8.222656 -2.054688 7.109375 -1.113281 5.117188 -1.113281 Z M 1.980469 -1.113281 "/></g></g></g><g fill="#ffffff" fill-opacity="1"><g transform="translate(170.389126, 60.462998)"><g><path d="M 0.53125 0 L 8.105469 0 L 8.105469 -1.070312 L 1.960938 -1.070312 L 1.960938 -3.371094 L 7.574219 -3.371094 L 7.574219 -4.355469 L 1.960938 -4.355469 L 1.960938 -6.429688 L 8 -6.429688 L 8 -7.511719 L 0.53125 -7.511719 Z M 0.53125 0 "/></g></g></g><g fill="#ffffff" fill-opacity="1"><g transform="translate(186.649639, 60.462998)"><g><path d="M 3.886719 0 L 5.53125 0 L 9.429688 -7.511719 L 7.851562 -7.511719 L 4.726562 -1.378906 L 4.703125 -1.378906 L 1.566406 -7.511719 L 0 -7.511719 Z M 3.886719 0 "/></g></g></g><g fill="#ffffff" fill-opacity="1"><g transform="translate(204.02203, 60.462998)"><g><path d="M 0.53125 0 L 8.105469 0 L 8.105469 -1.070312 L 1.960938 -1.070312 L 1.960938 -3.371094 L 7.574219 -3.371094 L 7.574219 -4.355469 L 1.960938 -4.355469 L 1.960938 -6.429688 L 8 -6.429688 L 8 -7.511719 L 0.53125 -7.511719 Z M 0.53125 0 "/></g></g></g><g fill="#ffffff" fill-opacity="1"><g transform="translate(220.282537, 60.462998)"><g><path d="M 0.53125 0 L 6.8125 0 L 6.8125 -1.164062 L 2.003906 -1.164062 L 2.003906 -7.511719 L 0.53125 -7.511719 Z M 0.53125 0 "/></g></g></g><g fill="#ffffff" fill-opacity="1"><g transform="translate(235.124096, 60.462998)"><g><path d="M 5.625 0.265625 C 8.742188 0.265625 10.859375 -1.367188 10.859375 -3.75 C 10.859375 -6.125 8.742188 -7.777344 5.625 -7.777344 C 2.523438 -7.777344 0.402344 -6.125 0.402344 -3.75 C 0.402344 -1.367188 2.523438 0.265625 5.625 0.265625 Z M 5.625 -0.878906 C 3.410156 -0.878906 1.875 -2.054688 1.875 -3.75 C 1.875 -5.445312 3.410156 -6.621094 5.625 -6.621094 C 7.839844 -6.621094 9.386719 -5.445312 9.386719 -3.75 C 9.386719 -2.054688 7.839844 -0.878906 5.625 -0.878906 Z M 5.625 -0.878906 "/></g></g></g><g fill="#ffffff" fill-opacity="1"><g transform="translate(254.328408, 60.462998)"><g><path d="M 0.53125 0 L 2.003906 0 L 2.003906 -2.597656 L 5.976562 -2.597656 C 7.894531 -2.597656 8.964844 -3.496094 8.972656 -5.03125 C 8.972656 -6.601562 7.902344 -7.511719 5.988281 -7.511719 L 0.53125 -7.511719 Z M 2.003906 -3.613281 L 2.003906 -6.484375 L 5.617188 -6.484375 C 6.824219 -6.484375 7.5 -5.953125 7.5 -5.042969 C 7.5 -4.144531 6.824219 -3.613281 5.617188 -3.613281 Z M 2.003906 -3.613281 "/></g></g></g><g fill="#ffffff" fill-opacity="1"><g transform="translate(271.414886, 60.462998)"><g><path d="M 0.53125 0 L 8.105469 0 L 8.105469 -1.070312 L 1.960938 -1.070312 L 1.960938 -3.371094 L 7.574219 -3.371094 L 7.574219 -4.355469 L 1.960938 -4.355469 L 1.960938 -6.429688 L 8 -6.429688 L 8 -7.511719 L 0.53125 -7.511719 Z M 0.53125 0 "/></g></g></g><g fill="#ffffff" fill-opacity="1"><g transform="translate(287.675394, 60.462998)"><g><path d="M 8.382812 0.210938 C 8.964844 0.210938 9.503906 -0.0742188 9.820312 -0.464844 L 9.375 -1.164062 C 9.21875 -0.921875 8.984375 -0.753906 8.75 -0.753906 C 8.464844 -0.753906 8.316406 -0.953125 8.191406 -1.207031 L 7.660156 -2.277344 C 7.480469 -2.679688 7.238281 -2.988281 6.875 -3.179688 L 6.875 -3.1875 C 8.253906 -3.335938 9.101562 -4.144531 9.101562 -5.265625 C 9.101562 -6.652344 8.011719 -7.511719 6.25 -7.511719 L 0.53125 -7.511719 L 0.53125 0 L 2.003906 0 L 2.003906 -2.914062 L 5.066406 -2.914062 C 5.59375 -2.914062 6.039062 -2.585938 6.292969 -2.054688 L 6.867188 -0.835938 C 7.152344 -0.277344 7.585938 0.210938 8.382812 0.210938 Z M 2.003906 -3.929688 L 2.003906 -6.464844 L 5.945312 -6.464844 C 6.972656 -6.464844 7.628906 -5.964844 7.628906 -5.179688 C 7.628906 -4.429688 6.972656 -3.929688 5.945312 -3.929688 Z M 2.003906 -3.929688 "/></g></g></g></svg>